<?xml version="1.0" encoding="UTF-8" standalone="no"?>
<!-- Created with Inkscape (http://www.inkscape.org/) -->

<svg
   xmlns:dc="http://purl.org/dc/elements/1.1/"
   xmlns:cc="http://creativecommons.org/ns#"
   xmlns:rdf="http://www.w3.org/1999/02/22-rdf-syntax-ns#"
   xmlns:svg="http://www.w3.org/2000/svg"
   xmlns="http://www.w3.org/2000/svg"
   xmlns:sodipodi="http://sodipodi.sourceforge.net/DTD/sodipodi-0.dtd"
   xmlns:inkscape="http://www.inkscape.org/namespaces/inkscape"
   width="240"
   height="75"
   id="svg2"
   version="1.1"
   inkscape:version="0.48.4 r9939"
   sodipodi:docname="xterior-xpressions-logo.svg"
   inkscape:export-filename="C:\Users\us084134\Documents\WebstormProjects\XterriorXpressions\app\theme\img\xterior-xpressions-logo.png"
   inkscape:export-xdpi="90"
   inkscape:export-ydpi="90">
  <defs
     id="defs4" />
  <sodipodi:namedview
     id="base"
     pagecolor="#030303"
     bordercolor="#666666"
     borderopacity="1.0"
     inkscape:pageopacity="0.50196078"
     inkscape:pageshadow="2"
     inkscape:zoom="2.8"
     inkscape:cx="86.066484"
     inkscape:cy="101.20983"
     inkscape:document-units="px"
     inkscape:current-layer="layer1"
     showgrid="false"
     inkscape:window-width="1680"
     inkscape:window-height="988"
     inkscape:window-x="1432"
     inkscape:window-y="-8"
     inkscape:window-maximized="1"
     showguides="true"
     inkscape:guide-bbox="true" />
  <metadata
     id="metadata7">
    <rdf:RDF>
      <cc:Work
         rdf:about="">
        <dc:format>image/svg+xml</dc:format>
        <dc:type
           rdf:resource="http://purl.org/dc/dcmitype/StillImage" />
        <dc:title />
      </cc:Work>
    </rdf:RDF>
  </metadata>
  <g
     inkscape:label="Layer 1"
     inkscape:groupmode="layer"
     id="layer1"
     transform="translate(0,-977.36218)">
    <g
       id="g3970"
       transform="matrix(0.90236662,0,0,0.90236662,-0.0918874,118.59407)"
       inkscape:export-xdpi="90"
       inkscape:export-ydpi="90"
       inkscape:export-filename="C:\Users\us084134\Documents\WebstormProjects\XterriorXpressions\app\theme\img\xterior-xpressions-logo.png">
      <rect
         ry="7.5816574"
         rx="14.02474"
         y="952.57648"
         x="0.096612699"
         height="82.85714"
         width="266.37537"
         id="rect2985"
         style="fill:#ffffff;fill-opacity:1;stroke:none" />
      <path
         id="rect2985-1"
         d="m 10.255723,952.7359 c -5.7903595,0.66767 -10.14492769,3.73604 -10.14492769,7.44197 l 0,67.64703 c 0,3.706 4.35456819,6.7744 10.14492769,7.442 l 0,-82.531 z"
         style="fill:#f13906;fill-opacity:1;stroke:none"
         inkscape:connector-curvature="0" />
      <path
         sodipodi:nodetypes="cscsssc"
         inkscape:connector-curvature="0"
         id="path3802"
         d="m 5.8680773,990.49754 c 0,0 27.2216207,-3.42957 31.4483227,-13.96279 4.03512,-10.05578 11.080569,-10.50412 11.080569,-10.50412 0,0 2.214491,-0.3153 4.86776,-1.53719 2.433879,-1.12087 -7.87809,0.54442 -9.799575,1.24896 -1.957839,0.71788 -5.828509,1.82542 -8.774789,9.38326 -2.946275,7.55785 -24.338818,10.76032 -24.338818,10.76032"
         style="fill:#f13906;fill-opacity:1;stroke:none" />
      <path
         inkscape:connector-curvature="0"
         id="path3804"
         d="m 27.234487,983.83478 c 0,0 -12.932399,-1.52106 -11.18702,-12.71815 1.745385,-11.19709 1.519985,-9.2549 1.519985,-9.2549 0,0 15.527273,6.82434 12.570706,13.08981 -2.956571,6.26548 -2.903671,8.88324 -2.903671,8.88324 z"
         style="fill:#f13906;fill-opacity:1;stroke:none" />
      <path
         sodipodi:nodetypes="cscsc"
         inkscape:connector-curvature="0"
         id="path3804-7"
         d="m 43.647266,964.72717 c 0,0 1.533528,-10.599 12.822392,-9.16854 11.288865,1.43046 9.330762,1.24573 9.330762,1.24573 0,0 -8.333485,15.37672 -14.65031,12.95361 -6.316836,-2.42312 -7.502844,-5.0308 -7.502844,-5.0308 z"
         style="fill:#f13906;fill-opacity:1;stroke:none" />
      <path
         sodipodi:nodetypes="cscsc"
         inkscape:connector-curvature="0"
         id="path3804-7-4"
         d="m 36.004219,976.57765 c 0,0 9.187577,-4.11706 13.233136,6.69145 4.045553,10.80851 3.293094,8.96653 3.293094,8.96653 0,0 -16.137709,0.52473 -17.102796,-6.36302 -0.965102,-6.88776 0.576566,-9.29496 0.576566,-9.29496 z"
         style="fill:#f13906;fill-opacity:1;stroke:none" />
      <flowRoot
         transform="matrix(0.50724639,0,0,0.50724639,-65.845418,837.61015)"
         style="font-size:12px;font-style:normal;font-weight:normal;line-height:125%;letter-spacing:0px;word-spacing:0px;fill:#000000;fill-opacity:1;stroke:none;font-family:Sans"
         id="flowRoot3842"
         xml:space="preserve"><flowRegion
           id="flowRegion3844"><rect
             y="235.14877"
             x="262.63965"
             height="112.12693"
             width="367.69553"
             id="rect3846" /></flowRegion><flowPara
           id="flowPara3848" /></flowRoot>      <flowRoot
         transform="matrix(0.50724639,0,0,0.50724639,-65.845418,837.61015)"
         style="font-size:12px;font-style:normal;font-weight:normal;line-height:125%;letter-spacing:0px;word-spacing:0px;fill:#000000;fill-opacity:1;stroke:none;font-family:Sans"
         id="flowRoot3850"
         xml:space="preserve"><flowRegion
           id="flowRegion3852"><rect
             y="240.19954"
             x="286.88333"
             height="114.14724"
             width="334.3605"
             id="rect3854" /></flowRegion><flowPara
           id="flowPara3856" /></flowRoot>      <g
         transform="translate(0,-8)"
         id="g3953">
        <flowRoot
           xml:space="preserve"
           id="flowRoot3004"
           style="font-size:100px;font-style:normal;font-variant:normal;font-weight:normal;font-stretch:normal;line-height:125%;letter-spacing:0px;word-spacing:0px;fill:#333333;fill-opacity:1;stroke:none;font-family:BlackJack;-inkscape-font-specification:BlackJack"
           transform="matrix(0.50724639,0,0,0.50724639,-44.324776,821.72587)"><flowRegion
             id="flowRegion3006"><rect
               id="rect3008"
               width="425.27423"
               height="138.3909"
               x="253.54829"
               y="259.39243"
               style="font-size:100px;font-style:normal;font-variant:normal;font-weight:normal;font-stretch:normal;fill:#333333;font-family:BlackJack;-inkscape-font-specification:BlackJack" /></flowRegion><flowPara
             id="flowPara3010">Xterior</flowPara></flowRoot>        <flowRoot
           xml:space="preserve"
           id="flowRoot3026"
           style="font-size:64px;font-style:normal;font-variant:normal;font-weight:normal;font-stretch:normal;line-height:125%;letter-spacing:0px;word-spacing:0px;fill:#333333;fill-opacity:1;stroke:none;font-family:Calibri;-inkscape-font-specification:Calibri"
           transform="matrix(0.50724639,0,0,0.50724639,-66.3548,835.63266)"><flowRegion
             id="flowRegion3028"><rect
               id="rect3030"
               width="310.11685"
               height="80.812088"
               x="295.9747"
               y="333.13358"
               style="font-size:64px;font-style:normal;font-variant:normal;font-weight:normal;font-stretch:normal;fill:#333333;font-family:Calibri;-inkscape-font-specification:Calibri" /></flowRegion><flowPara
             id="flowPara3032">xpressions</flowPara></flowRoot>        <path
           sodipodi:type="arc"
           style="opacity:0.36139993;fill:#333333;fill-opacity:1;stroke:none"
           id="path3818"
           sodipodi:cx="307.22153"
           sodipodi:cy="339.42636"
           sodipodi:rx="2.7572551"
           sodipodi:ry="2.7572551"
           d="m 309.97878,339.42636 c 0,1.52279 -1.23446,2.75726 -2.75725,2.75726 -1.52279,0 -2.75726,-1.23447 -2.75726,-2.75726 0,-1.52279 1.23447,-2.75725 2.75726,-2.75725 1.52279,0 2.75725,1.23446 2.75725,2.75725 z"
           transform="matrix(0.50724639,0,0,0.50724639,-65.845418,837.61015)" />
        <path
           transform="matrix(0.50724639,0,0,0.50724639,-46.410684,837.65006)"
           sodipodi:type="arc"
           style="opacity:0.36139993;fill:#333333;fill-opacity:1;stroke:none"
           id="path3818-1"
           sodipodi:cx="307.22153"
           sodipodi:cy="339.42636"
           sodipodi:rx="2.7572551"
           sodipodi:ry="2.7572551"
           d="m 309.97878,339.42636 c 0,1.52279 -1.23446,2.75726 -2.75725,2.75726 -1.52279,0 -2.75726,-1.23447 -2.75726,-2.75726 0,-1.52279 1.23447,-2.75725 2.75726,-2.75725 1.52279,0 2.75725,1.23446 2.75725,2.75725 z" />
        <path
           transform="matrix(0.50724639,0,0,0.50724639,-24.055611,837.55948)"
           sodipodi:type="arc"
           style="opacity:0.36139993;fill:#333333;fill-opacity:1;stroke:none"
           id="path3818-1-4"
           sodipodi:cx="307.22153"
           sodipodi:cy="339.42636"
           sodipodi:rx="2.7572551"
           sodipodi:ry="2.7572551"
           d="m 309.97878,339.42636 c 0,1.52279 -1.23446,2.75726 -2.75725,2.75726 -1.52279,0 -2.75726,-1.23447 -2.75726,-2.75726 0,-1.52279 1.23447,-2.75725 2.75726,-2.75725 1.52279,0 2.75725,1.23446 2.75725,2.75725 z" />
        <path
           transform="matrix(0.50724639,0,0,0.50724639,-2.8274395,837.62063)"
           sodipodi:type="arc"
           style="opacity:0.36139993;fill:#333333;fill-opacity:1;stroke:none"
           id="path3818-1-0"
           sodipodi:cx="307.22153"
           sodipodi:cy="339.42636"
           sodipodi:rx="2.7572551"
           sodipodi:ry="2.7572551"
           d="m 309.97878,339.42636 c 0,1.52279 -1.23446,2.75726 -2.75725,2.75726 -1.52279,0 -2.75726,-1.23447 -2.75726,-2.75726 0,-1.52279 1.23447,-2.75725 2.75726,-2.75725 1.52279,0 2.75725,1.23446 2.75725,2.75725 z" />
        <path
           transform="matrix(0.50724639,0,0,0.50724639,31.133614,837.55658)"
           sodipodi:type="arc"
           style="opacity:0.36139993;fill:#333333;fill-opacity:1;stroke:none"
           id="path3818-1-9"
           sodipodi:cx="307.22153"
           sodipodi:cy="339.42636"
           sodipodi:rx="2.7572551"
           sodipodi:ry="2.7572551"
           d="m 309.97878,339.42636 c 0,1.52279 -1.23446,2.75726 -2.75725,2.75726 -1.52279,0 -2.75726,-1.23447 -2.75726,-2.75726 0,-1.52279 1.23447,-2.75725 2.75726,-2.75725 1.52279,0 2.75725,1.23446 2.75725,2.75725 z" />
        <path
           transform="matrix(0.50724639,0,0,0.50724639,47.077281,837.60799)"
           sodipodi:type="arc"
           style="opacity:0.36139993;fill:#333333;fill-opacity:1;stroke:none"
           id="path3818-1-48"
           sodipodi:cx="307.22153"
           sodipodi:cy="339.42636"
           sodipodi:rx="2.7572551"
           sodipodi:ry="2.7572551"
           d="m 309.97878,339.42636 c 0,1.52279 -1.23446,2.75726 -2.75725,2.75726 -1.52279,0 -2.75726,-1.23447 -2.75726,-2.75726 0,-1.52279 1.23447,-2.75725 2.75726,-2.75725 1.52279,0 2.75725,1.23446 2.75725,2.75725 z" />
        <path
           transform="matrix(0.50724639,0,0,0.50724639,63.824822,837.55948)"
           sodipodi:type="arc"
           style="opacity:0.36139993;fill:#333333;fill-opacity:1;stroke:none"
           id="path3818-1-8"
           sodipodi:cx="307.22153"
           sodipodi:cy="339.42636"
           sodipodi:rx="2.7572551"
           sodipodi:ry="2.7572551"
           d="m 309.97878,339.42636 c 0,1.52279 -1.23446,2.75726 -2.75725,2.75726 -1.52279,0 -2.75726,-1.23447 -2.75726,-2.75726 0,-1.52279 1.23447,-2.75725 2.75726,-2.75725 1.52279,0 2.75725,1.23446 2.75725,2.75725 z" />
      </g>
      <rect
         ry="0"
         y="952.35706"
         x="246.30591"
         height="83.114777"
         width="20.708128"
         id="rect3951"
         style="fill:#ffffff;fill-opacity:1;stroke:none" />
    </g>
  </g>
</svg>
